<?xml version="1.0" encoding="UTF-8" standalone="no"?>
<!DOCTYPE svg PUBLIC "-//W3C//DTD SVG 1.1//EN"
 "http://www.w3.org/Graphics/SVG/1.1/DTD/svg11.dtd">
<!-- Generated by graphviz version 3.0.0 (20220226.1711)
 -->
<!-- Title: Tree Pages: 1 -->
<svg width="270pt" height="195pt"
 viewBox="0.00 0.00 270.00 195.00" xmlns="http://www.w3.org/2000/svg" xmlns:xlink="http://www.w3.org/1999/xlink">
<g id="graph0" class="graph" transform="scale(1 1) rotate(0) translate(4 191)">
<title>Tree</title>
<polygon fill="white" stroke="transparent" points="-4,4 -4,-191 266,-191 266,4 -4,4"/>
<!-- 0 -->
<g id="node1" class="node">
<title>0</title>
<path fill="#f5cdb1" stroke="black" d="M184,-187C184,-187 78,-187 78,-187 72,-187 66,-181 66,-175 66,-175 66,-116 66,-116 66,-110 72,-104 78,-104 78,-104 184,-104 184,-104 190,-104 196,-110 196,-116 196,-116 196,-175 196,-175 196,-181 190,-187 184,-187"/>
<text text-anchor="start" x="76" y="-171.8" font-family="Helvetica,sans-Serif" font-size="14.00">sex_female ≤ 0.5</text>
<text text-anchor="start" x="93.5" y="-156.8" font-family="Helvetica,sans-Serif" font-size="14.00">gini = 0.469</text>
<text text-anchor="start" x="83.5" y="-141.8" font-family="Helvetica,sans-Serif" font-size="14.00">samples = 712</text>
<text text-anchor="start" x="74" y="-126.8" font-family="Helvetica,sans-Serif" font-size="14.00">value = [444, 268]</text>
<text text-anchor="start" x="102" y="-111.8" font-family="Helvetica,sans-Serif" font-size="14.00">class = 0</text>
</g>
<!-- 1 -->
<g id="node2" class="node">
<title>1</title>
<path fill="#eb9e66" stroke="black" d="M110,-68C110,-68 12,-68 12,-68 6,-68 0,-62 0,-56 0,-56 0,-12 0,-12 0,-6 6,0 12,0 12,0 110,0 110,0 116,0 122,-6 122,-12 122,-12 122,-56 122,-56 122,-62 116,-68 110,-68"/>
<text text-anchor="start" x="23.5" y="-52.8" font-family="Helvetica,sans-Serif" font-size="14.00">gini = 0.303</text>
<text text-anchor="start" x="13.5" y="-37.8" font-family="Helvetica,sans-Serif" font-size="14.00">samples = 467</text>
<text text-anchor="start" x="8" y="-22.8" font-family="Helvetica,sans-Serif" font-size="14.00">value = [380, 87]</text>
<text text-anchor="start" x="32" y="-7.8" font-family="Helvetica,sans-Serif" font-size="14.00">class = 0</text>
</g>
<!-- 0&#45;&gt;1 -->
<g id="edge1" class="edge">
<title>0&#45;&gt;1</title>
<path fill="none" stroke="black" d="M104.93,-103.73C99.34,-94.97 93.41,-85.7 87.79,-76.91"/>
<polygon fill="black" stroke="black" points="90.62,-74.84 82.29,-68.3 84.72,-78.61 90.62,-74.84"/>
<text text-anchor="middle" x="76.91" y="-89.02" font-family="Helvetica,sans-Serif" font-size="14.00">True</text>
</g>
<!-- 2 -->
<g id="node3" class="node">
<title>2</title>
<path fill="#7fc0ee" stroke="black" d="M250,-68C250,-68 152,-68 152,-68 146,-68 140,-62 140,-56 140,-56 140,-12 140,-12 140,-6 146,0 152,0 152,0 250,0 250,0 256,0 262,-6 262,-12 262,-12 262,-56 262,-56 262,-62 256,-68 250,-68"/>
<text text-anchor="start" x="163.5" y="-52.8" font-family="Helvetica,sans-Serif" font-size="14.00">gini = 0.386</text>
<text text-anchor="start" x="153.5" y="-37.8" font-family="Helvetica,sans-Serif" font-size="14.00">samples = 245</text>
<text text-anchor="start" x="148" y="-22.8" font-family="Helvetica,sans-Serif" font-size="14.00">value = [64, 181]</text>
<text text-anchor="start" x="172" y="-7.8" font-family="Helvetica,sans-Serif" font-size="14.00">class = 1</text>
</g>
<!-- 0&#45;&gt;2 -->
<g id="edge2" class="edge">
<title>0&#45;&gt;2</title>
<path fill="none" stroke="black" d="M157.07,-103.73C162.66,-94.97 168.59,-85.7 174.21,-76.91"/>
<polygon fill="black" stroke="black" points="177.28,-78.61 179.71,-68.3 171.38,-74.84 177.28,-78.61"/>
<text text-anchor="middle" x="185.09" y="-89.02" font-family="Helvetica,sans-Serif" font-size="14.00">False</text>
</g>
</g>
</svg>
